<svg width="512" height="512" viewBox="0 0 512 512" fill="none" xmlns="http://www.w3.org/2000/svg">
<rect width="512" height="512" rx="90" fill="url(#paint0_linear_2_9)"/>
<path d="M64.8799 304H87.3506V274.991H103.474C113.291 274.991 120.612 272.071 125.437 266.231C130.261 260.392 132.673 252.753 132.673 243.316C132.673 233.88 130.218 226.241 125.31 220.401C120.401 214.519 113.249 211.578 103.854 211.578H64.8799V304ZM87.3506 259.82V227.892H98.1416C102.585 227.892 105.695 229.436 107.473 232.525C109.25 235.615 110.139 239.381 110.139 243.824C110.139 248.31 109.25 252.097 107.473 255.187C105.738 258.276 102.627 259.82 98.1416 259.82H87.3506ZM125.881 304H147.59L164.348 241.539C164.771 239.846 165.152 238.365 165.49 237.096C165.829 235.784 166.125 234.684 166.379 233.795H166.569C166.823 234.684 167.098 235.784 167.395 237.096C167.733 238.365 168.135 239.868 168.601 241.603L186.184 304H208.21L179.963 211.578H154.763L125.881 304ZM142.448 285.719H191.262L187.961 270.992H145.368L142.448 285.719ZM209.924 279.435C209.924 287.94 213.076 294.373 219.382 298.731C225.687 303.09 233.749 305.27 243.566 305.27C253.342 305.27 261.234 302.815 267.243 297.906C273.295 292.997 276.32 286.205 276.32 277.53C276.32 269.786 274.268 263.544 270.163 258.805C266.058 254.023 259.436 250.214 250.295 247.379C243.312 245.221 238.509 243.274 235.886 241.539C233.304 239.762 232.014 237.604 232.014 235.064C232.014 232.271 232.881 230.007 234.616 228.272C236.351 226.537 239.144 225.67 242.995 225.67C246.634 225.67 249.427 226.664 251.374 228.653C253.321 230.642 254.294 233.414 254.294 236.969V239.317H274.353V235.128C274.353 227.172 271.411 221.057 265.529 216.783C259.689 212.509 252.051 210.372 242.614 210.372C233.05 210.372 225.391 212.742 219.636 217.481C213.923 222.221 211.066 228.696 211.066 236.905C211.066 244.142 213.203 250.108 217.478 254.806C221.794 259.503 228.713 263.438 238.234 266.612C244.836 268.813 249.343 270.844 251.755 272.706C254.209 274.568 255.437 276.874 255.437 279.625C255.437 282.968 254.379 285.613 252.263 287.56C250.147 289.506 247.142 290.479 243.249 290.479C239.187 290.479 236.013 289.422 233.728 287.306C231.442 285.147 230.321 281.868 230.363 277.467V274.166H209.924V279.435ZM283.811 279.435C283.811 287.94 286.963 294.373 293.269 298.731C299.574 303.09 307.635 305.27 317.453 305.27C327.229 305.27 335.121 302.815 341.13 297.906C347.181 292.997 350.207 286.205 350.207 277.53C350.207 269.786 348.155 263.544 344.05 258.805C339.945 254.023 333.322 250.214 324.182 247.379C317.199 245.221 312.396 243.274 309.772 241.539C307.191 239.762 305.9 237.604 305.9 235.064C305.9 232.271 306.768 230.007 308.503 228.272C310.238 226.537 313.031 225.67 316.882 225.67C320.521 225.67 323.314 226.664 325.261 228.653C327.207 230.642 328.181 233.414 328.181 236.969V239.317H348.239V235.128C348.239 227.172 345.298 221.057 339.416 216.783C333.576 212.509 325.938 210.372 316.501 210.372C306.937 210.372 299.278 212.742 293.522 217.481C287.81 222.221 284.953 228.696 284.953 236.905C284.953 244.142 287.09 250.108 291.364 254.806C295.681 259.503 302.6 263.438 312.121 266.612C318.723 268.813 323.229 270.844 325.642 272.706C328.096 274.568 329.323 276.874 329.323 279.625C329.323 282.968 328.265 285.613 326.149 287.56C324.034 289.506 321.029 290.479 317.136 290.479C313.073 290.479 309.899 289.422 307.614 287.306C305.329 285.147 304.208 281.868 304.25 277.467V274.166H283.811V279.435ZM361.887 254.933C361.887 259.08 363.368 262.74 366.33 265.914C369.292 269.046 373.08 270.611 377.692 270.611C382.305 270.611 386.071 269.046 388.991 265.914C391.953 262.74 393.435 259.08 393.435 254.933C393.435 250.701 391.953 247.019 388.991 243.888C386.029 240.714 382.263 239.127 377.692 239.127C373.08 239.127 369.292 240.714 366.33 243.888C363.368 247.019 361.887 250.701 361.887 254.933ZM411.145 254.933C411.145 259.08 412.626 262.74 415.588 265.914C418.55 269.046 422.338 270.611 426.95 270.611C431.563 270.611 435.329 269.046 438.249 265.914C441.211 262.74 442.692 259.08 442.692 254.933C442.692 250.701 441.211 247.019 438.249 243.888C435.287 240.714 431.521 239.127 426.95 239.127C422.338 239.127 418.55 240.714 415.588 243.888C412.626 247.019 411.145 250.701 411.145 254.933Z" fill="url(#paint1_linear_2_9)"/>
<defs>
<linearGradient id="paint0_linear_2_9" x1="255.012" y1="0" x2="255.012" y2="512" gradientUnits="userSpaceOnUse">
<stop stop-color="#F9A386"/>
<stop offset="1" stop-color="#C73605"/>
</linearGradient>
<linearGradient id="paint1_linear_2_9" x1="255.5" y1="184" x2="255.5" y2="336" gradientUnits="userSpaceOnUse">
<stop stop-color="white"/>
<stop offset="1" stop-color="white"/>
</linearGradient>
</defs>
</svg>
